<?xml version="1.0" encoding="UTF-8"?>
<svg id="Layer_2" data-name="Layer 2" xmlns="http://www.w3.org/2000/svg" viewBox="0 0 4300 3157.7">
  <defs>
    <style>
      .cls-1 {
        fill: #452b99;
      }

      .cls-1, .cls-2, .cls-3, .cls-4, .cls-5, .cls-6, .cls-7, .cls-8, .cls-9, .cls-10, .cls-11, .cls-12, .cls-13, .cls-14, .cls-15, .cls-16, .cls-17, .cls-18, .cls-19, .cls-20 {
        stroke-width: 0px;
      }

      .cls-21 {
        opacity: .1;
      }

      .cls-2 {
        fill: #e9e7ff;
      }

      .cls-3 {
        fill: #100a48;
      }

      .cls-4 {
        fill: #d7d4ff;
      }

      .cls-5 {
        fill: #8f6dff;
      }

      .cls-6 {
        fill: #ab1447;
      }

      .cls-8 {
        fill: none;
      }

      .cls-9 {
        fill: #edebff;
      }

      .cls-10 {
        fill: #ff2e56;
      }

      .cls-11 {
        fill: #fcc922;
      }

      .cls-12 {
        fill: #6737c1;
      }

      .cls-13 {
        fill: #fff;
      }

      .cls-14 {
        fill: purple;
      }

      .cls-15 {
        fill: #452b96;
      }

      .cls-16 {
        fill: #ffadaf;
      }

      .cls-17 {
        fill: #c7abc9;
      }

      .cls-18 {
        fill: #ff9396;
      }

      .cls-22 {
        opacity: .15;
      }

      .cls-19 {
        fill: #300b4c;
      }

      .cls-20 {
        fill: #373352;
      }
    </style>
  </defs>
  <g id="Layer_1-2" data-name="Layer 1">
    <g>
      <path class="cls-9" d="M1427.95,3100.87c0,31.39-307.31,56.82-686.4,56.82s-686.39-25.44-686.39-56.82,307.31-56.82,686.39-56.82,686.4,25.44,686.4,56.82"/>
      <path class="cls-2" d="M4134.76,1763.81c51.54,0,100.39,10.82,144.72,30.46-10.1,59.48-23.62,118.59-40.56,176.64-29.73-20.37-65.61-32.09-104.16-32.09-102.38,0-185.29,82.91-185.29,185.29,0,90.84,65.25,166.36,151.4,182.04-28.83,53.16-60.56,104.71-94.98,154.27-135.17-51.9-231.43-183.11-231.43-336.31,0-198.62,161.67-360.29,360.29-360.29"/>
      <path class="cls-2" d="M416.34,2218.72c0,163.29-109.05,301.53-258.28,345.51-37.31-49.93-68.85-103.82-93.72-160.41,98.41-4.15,177.17-85.44,177.17-185.1s-83.09-185.29-185.28-185.29c-19.64,0-38.39,3.07-56.24,8.65,3.97-61.81,14.79-123.09,32.27-182.57,7.93-.72,15.86-.9,23.97-.9,198.61,0,360.11,161.49,360.11,360.11"/>
      <path class="cls-2" d="M4288.33,1723.06c-48.3-18.92-100.75-29.2-155.72-29.2-238.45,0-432.39,193.94-432.39,432.39,0,177.17,107.06,329.82,260.07,396.15-98.95,130.49-217.36,246.93-351.81,342.45H556.58c-135.71-47.95-257.19-131.94-352.17-238.63,164.37-61.09,281.88-219.7,281.88-405.34,0-237.91-193.39-431.66-431.13-432.2,54.25-137.88,144.37-262.06,263.15-353.44,275.75-211.96,659.65-238.99,949.65-431.66,165.45-109.94,288.91-266.03,417.05-417.96,78.05,77.32,185.65,125.25,304.06,125.25,238.46,0,432.39-193.93,432.39-432.38,0-72.28-17.86-140.41-49.39-200.24,360.11-122.57,772.67-103.46,1109.69,73.71,488.44,256.65,797,783.11,817.19,1326.16,3.06,81.83-.72,163.83-10.64,244.93"/>
      <rect class="cls-14" x="3063.89" y="2210.18" width="840.66" height="527.57"/>
      <path class="cls-15" d="M4101.27,2821.61v43.23h-1234.11v-63.63h1213.7c11.31,0,20.41,9.28,20.41,20.41"/>
      <path class="cls-17" d="M4036.89,2758.16v43.04h-1105.36v-43.04c0-11.32,9.1-20.41,20.22-20.41h1064.73c11.31,0,20.41,9.09,20.41,20.41"/>
      <rect class="cls-17" x="3028.45" y="2279.1" width="70.87" height="401.33"/>
      <rect class="cls-17" x="3208.18" y="2279.1" width="70.87" height="401.33"/>
      <rect class="cls-17" x="3869.11" y="2279.1" width="70.87" height="401.33"/>
      <path class="cls-17" d="M4026.31,2177.65c0,12.24-4.82,23.19-12.99,31.16-7.79,7.99-18.92,12.99-31.17,12.99h-995.9c-24.48,0-44.15-19.85-44.15-44.15,0-16.51,9.27-31.72,24.11-39.15l517.99-369,517.98,369c14.85,7.43,24.12,22.64,24.12,39.15"/>
      <path class="cls-15" d="M4035.27,2173.86c-8.47,0-17.06-1.93-25.13-6.03l-525.93-373.02-525.93,373.02c-27.45,13.91-60.91,2.95-74.82-24.46-13.9-27.42-2.95-60.91,24.47-74.81l547.59-378.73c17.25-11.93,40.1-11.93,57.35,0l547.6,378.73c27.41,13.9,38.36,47.39,24.46,74.81-9.81,19.34-29.38,30.49-49.68,30.49"/>
      <path class="cls-15" d="M3566.96,2053.04c0,45.7-37.05,82.75-82.74,82.75s-82.75-37.05-82.75-82.75,37.05-82.74,82.75-82.74,82.74,37.05,82.74,82.74"/>
      <path class="cls-15" d="M3975.34,2707.47v30.13h-141.74v-30.13c0-14.87,12.05-26.94,26.93-26.94h87.87c14.89,0,26.93,12.07,26.93,26.94"/>
      <rect class="cls-17" x="3689.38" y="2279.1" width="70.87" height="401.33"/>
      <path class="cls-15" d="M3795.69,2707.47v30.13h-141.74v-30.13c0-14.87,12.04-26.94,26.92-26.94h87.87c14.89,0,26.94,12.07,26.94,26.94"/>
      <path class="cls-15" d="M3975.33,2221.66v30.47c0,14.87-12.04,26.93-26.93,26.93h-87.87c-14.87,0-26.93-12.06-26.93-26.93v-30.47h141.73Z"/>
      <path class="cls-15" d="M2993.08,2221.66h141.73v30.47c0,14.87-12.04,26.93-26.93,26.93h-87.87c-14.88,0-26.93-12.06-26.93-26.93v-30.47Z"/>
      <path class="cls-15" d="M3134.83,2707.47v30.13h-141.73v-30.13c0-14.87,12.05-26.94,26.93-26.94h87.87c14.88,0,26.93,12.07,26.93,26.94"/>
      <path class="cls-15" d="M3653.94,2221.66h141.74v30.47c0,14.87-12.05,26.93-26.94,26.93h-87.87c-14.88,0-26.92-12.06-26.92-26.93v-30.47Z"/>
      <path class="cls-15" d="M3172.74,2221.66h141.73v30.47c0,14.87-12.04,26.93-26.93,26.93h-87.87c-14.89,0-26.93-12.06-26.93-26.93v-30.47Z"/>
      <path class="cls-15" d="M3314.48,2707.47v30.13h-141.73v-30.13c0-14.87,12.03-26.94,26.93-26.94h87.87c14.88,0,26.93,12.07,26.93,26.94"/>
      <path class="cls-15" d="M2969.47,458.02v2234.24c0,95.41-77.27,172.59-172.67,172.59h-1099.86c-95.41,0-172.67-77.18-172.67-172.59V458.02c0-95.41,77.27-172.67,172.67-172.67h1099.86c95.41,0,172.67,77.27,172.67,172.67"/>
      <path class="cls-17" d="M1696.91,2833.87c-75.7,0-137.28-61.59-137.28-137.27V565.79c0-75.69,61.59-137.27,137.28-137.27h1099.89c75.7,0,137.28,61.59,137.28,137.27v2130.81c0,75.69-61.58,137.27-137.28,137.27h-1099.89Z"/>
      <g class="cls-21">
        <path class="cls-7" d="M2152.38,2647.2c0,23.85-19.4,43.17-43.25,43.17s-43.17-19.32-43.17-43.17,19.32-43.25,43.17-43.25,43.25,19.4,43.25,43.25"/>
        <path class="cls-7" d="M2301.86,2647.2c0,23.85-19.4,43.17-43.25,43.17s-43.17-19.32-43.17-43.17,19.32-43.25,43.17-43.25,43.25,19.4,43.25,43.25"/>
        <path class="cls-7" d="M2451.35,2647.2c0,23.85-19.4,43.17-43.25,43.17s-43.17-19.32-43.17-43.17,19.32-43.25,43.17-43.25,43.25,19.4,43.25,43.25"/>
        <rect class="cls-8" x="2065.97" y="2603.96" width="385.4" height="86.42"/>
      </g>
      <path class="cls-17" d="M2161.4,369.67c0,12.3-9.97,22.26-22.26,22.26s-22.27-9.97-22.27-22.26,9.97-22.27,22.27-22.27,22.26,9.98,22.26,22.27"/>
      <path class="cls-17" d="M2408.53,369.63c0,7.32-5.87,13.19-13.12,13.19h-193.06c-7.31,0-13.18-5.86-13.18-13.19s5.87-13.12,13.18-13.12h193.06c7.25,0,13.12,5.87,13.12,13.12"/>
      <g class="cls-22">
        <rect class="cls-7" x="1524.27" y="504.57" width="1445.2" height="1942.58"/>
        <rect class="cls-8" x="1524.28" y="504.57" width="1445.2" height="1942.58"/>
      </g>
      <path class="cls-14" d="M2975.22,2409.06h-1456.75c-83.3,0-150.83-67.52-150.83-150.82V693.49c0-83.3,67.53-150.82,150.83-150.82h1456.75c83.3,0,150.82,67.52,150.82,150.82v1564.75c0,83.3-67.52,150.82-150.82,150.82"/>
      <g class="cls-21">
        <path class="cls-7" d="M2215.31,1503.18v109.18c0,15.71-12.68,28.39-28.39,28.39h-511.72c-15.71,0-28.39-12.68-28.39-28.39v-109.18c0-15.7,12.68-28.47,28.39-28.47h511.72c15.7,0,28.39,12.77,28.39,28.47"/>
        <rect class="cls-8" x="1646.81" y="1474.71" width="568.49" height="166.04"/>
      </g>
      <g class="cls-21">
        <path class="cls-7" d="M2215.31,1758.16v109.18c0,15.71-12.68,28.47-28.39,28.47h-511.72c-15.71,0-28.39-12.77-28.39-28.47v-109.18c0-15.71,12.68-28.39,28.39-28.39h511.72c15.7,0,28.39,12.68,28.39,28.39"/>
        <rect class="cls-8" x="1646.81" y="1729.77" width="568.49" height="166.04"/>
      </g>
      <g class="cls-21">
        <path class="cls-7" d="M2874.76,1503.18v109.18c0,15.71-12.77,28.39-28.39,28.39h-511.72c-15.71,0-28.39-12.68-28.39-28.39v-109.18c0-15.7,12.68-28.47,28.39-28.47h511.72c15.62,0,28.39,12.77,28.39,28.47"/>
        <rect class="cls-8" x="2306.25" y="1474.71" width="568.49" height="166.04"/>
      </g>
      <g class="cls-21">
        <path class="cls-7" d="M2874.76,1758.16v109.18c0,15.71-12.77,28.47-28.39,28.47h-511.72c-15.71,0-28.39-12.77-28.39-28.47v-109.18c0-15.71,12.68-28.39,28.39-28.39h511.72c15.62,0,28.39,12.68,28.39,28.39"/>
        <rect class="cls-8" x="2306.25" y="1729.77" width="568.49" height="166.04"/>
      </g>
      <g class="cls-21">
        <path class="cls-7" d="M1781.41,963.04h-312.79c-15.09,0-27.33-12.24-27.33-27.33v-78.35c0-15.09,12.24-27.33,27.33-27.33h312.79c15.09,0,27.33,12.24,27.33,27.33v78.35c0,15.09-12.24,27.33-27.33,27.33"/>
        <path class="cls-7" d="M1922.86,1012.62c0,6.66-5.47,12.06-12.13,12.06h-457.35c-6.67,0-12.06-5.4-12.06-12.06s5.39-12.13,12.06-12.13h457.35c6.66,0,12.13,5.39,12.13,12.13"/>
        <path class="cls-7" d="M1754.89,1074.25c0,6.66-5.47,12.06-12.13,12.06h-289.39c-6.66,0-12.05-5.4-12.05-12.06s5.39-12.13,12.05-12.13h289.39c6.66,0,12.13,5.39,12.13,12.13"/>
        <rect class="cls-8" x="1441.3" y="830.04" width="481.57" height="256.27"/>
      </g>
      <path class="cls-1" d="M3126.04,752v-58.5c0-83.3-67.53-150.83-150.82-150.83h-1456.76c-83.3,0-150.82,67.53-150.82,150.83v58.5h1758.4Z"/>
      <path class="cls-13" d="M1534.96,664.78c0,16.28-13.21,29.49-29.5,29.49s-29.49-13.2-29.49-29.49,13.2-29.49,29.49-29.49,29.5,13.21,29.5,29.49"/>
      <path class="cls-13" d="M1617.39,664.78c0,16.28-13.2,29.49-29.5,29.49s-29.49-13.2-29.49-29.49,13.2-29.49,29.49-29.49,29.5,13.21,29.5,29.49"/>
      <path class="cls-13" d="M1699.82,664.78c0,16.28-13.2,29.49-29.5,29.49s-29.49-13.2-29.49-29.49,13.2-29.49,29.49-29.49,29.5,13.21,29.5,29.49"/>
      <path class="cls-17" d="M1769.4,952.07h-312.79c-15.1,0-27.34-12.24-27.34-27.34v-78.34c0-15.09,12.24-27.33,27.34-27.33h312.79c15.09,0,27.33,12.24,27.33,27.33v78.34c0,15.1-12.24,27.34-27.33,27.34"/>
      <path class="cls-5" d="M1910.84,1001.65c0,6.66-5.47,12.05-12.13,12.05h-457.36c-6.66,0-12.05-5.39-12.05-12.05s5.39-12.13,12.05-12.13h457.36c6.66,0,12.13,5.38,12.13,12.13"/>
      <path class="cls-5" d="M1742.87,1063.28c0,6.66-5.47,12.06-12.13,12.06h-289.39c-6.66,0-12.05-5.4-12.05-12.06s5.39-12.13,12.05-12.13h289.39c6.66,0,12.13,5.39,12.13,12.13"/>
      <g class="cls-22">
        <path class="cls-7" d="M2491.87,1174.66c-.21,115.09-93.68,208.22-208.77,208.01s-208.22-93.68-208.01-208.77c.2-115.09,93.68-208.22,208.77-208.01,115.09.21,208.22,93.68,208.01,208.77"/>
        <rect class="cls-8" x="2075.13" y="965.9" width="416.73" height="416.78"/>
      </g>
      <path class="cls-1" d="M2478.93,1160.84c-.21,115.09-93.68,208.22-208.77,208.01-115.1-.21-208.22-93.68-208.01-208.77.2-115.09,93.68-208.22,208.77-208.01,115.09.21,208.22,93.68,208.01,208.77"/>
      <path class="cls-10" d="M2453.48,1160.8c-.19,101.04-82.24,182.8-183.28,182.62-101.04-.18-182.79-82.25-182.61-183.28.18-101.04,82.25-182.8,183.28-182.62,101.04.18,182.79,82.25,182.62,183.28"/>
      <path class="cls-13" d="M2319.73,1099.87c-.05,25.25-20.55,45.67-45.8,45.63-25.25-.05-45.67-20.55-45.63-45.8.05-25.25,20.55-45.67,45.8-45.63,25.25.05,45.67,20.55,45.63,45.8"/>
      <path class="cls-13" d="M2375.47,1253.87c-4.11-52.62-47.86-94.14-101.55-94.24-53.7-.09-97.6,41.26-101.9,93.87l203.45.37Z"/>
      <path class="cls-17" d="M2190.43,1476.2v109.18c0,15.71-12.68,28.39-28.39,28.39h-511.72c-15.7,0-28.39-12.68-28.39-28.39v-109.18c0-15.71,12.68-28.47,28.39-28.47h511.72c15.71,0,28.39,12.77,28.39,28.47"/>
      <path class="cls-17" d="M2190.43,1731.18v109.18c0,15.71-12.68,28.47-28.39,28.47h-511.72c-15.7,0-28.39-12.77-28.39-28.47v-109.18c0-15.71,12.68-28.39,28.39-28.39h511.72c15.71,0,28.39,12.68,28.39,28.39"/>
      <path class="cls-17" d="M2849.88,1476.2v109.18c0,15.71-12.77,28.39-28.39,28.39h-511.72c-15.7,0-28.39-12.68-28.39-28.39v-109.18c0-15.71,12.68-28.47,28.39-28.47h511.72c15.62,0,28.39,12.77,28.39,28.47"/>
      <path class="cls-17" d="M2849.88,1731.18v109.18c0,15.71-12.77,28.47-28.39,28.47h-511.72c-15.7,0-28.39-12.77-28.39-28.47v-109.18c0-15.71,12.68-28.39,28.39-28.39h511.72c15.62,0,28.39,12.68,28.39,28.39"/>
      <g class="cls-21">
        <path class="cls-7" d="M2532.47,2044.74v172.1c0,16.08-13.85,29.13-30.93,29.13h-463.35c-17.08,0-30.93-13.05-30.93-29.13v-172.1c0-16.09,13.85-29.13,30.93-29.13h463.35c17.08,0,30.93,13.04,30.93,29.13"/>
        <rect class="cls-8" x="2007.27" y="2015.6" width="525.24" height="230.37"/>
      </g>
      <path class="cls-11" d="M2510.62,2024.8v172.1c0,16.09-13.85,29.13-30.93,29.13h-463.35c-17.08,0-30.93-13.04-30.93-29.13v-172.1c0-16.09,13.85-29.13,30.93-29.13h463.35c17.08,0,30.93,13.04,30.93,29.13"/>
      <path class="cls-12" d="M2100.4,1510.2c0,4.45-3.61,8.06-8.06,8.06h-399.68c-4.45,0-8.06-3.61-8.06-8.06s3.61-7.98,8.06-7.98h399.68c4.45,0,8.06,3.61,8.06,7.98"/>
      <path class="cls-12" d="M1919.24,1551.21c0,4.45-3.61,8.06-8.06,8.06h-218.52c-4.45,0-8.06-3.61-8.06-8.06s3.61-7.98,8.06-7.98h218.52c4.45,0,8.06,3.61,8.06,7.98"/>
      <path class="cls-12" d="M2773.54,1510.2c0,4.45-3.61,8.06-8.06,8.06h-399.68c-4.45,0-8.06-3.61-8.06-8.06s3.61-7.98,8.06-7.98h399.68c4.45,0,8.06,3.61,8.06,7.98"/>
      <path class="cls-12" d="M2592.38,1551.21c0,4.45-3.61,8.06-8.06,8.06h-218.52c-4.45,0-8.06-3.61-8.06-8.06s3.61-7.98,8.06-7.98h218.52c4.45,0,8.06,3.61,8.06,7.98"/>
      <path class="cls-12" d="M1775.35,1785.77c0,11.41-9.24,20.65-20.65,20.65s-20.57-9.24-20.57-20.65,9.24-20.57,20.57-20.57,20.65,9.24,20.65,20.57"/>
      <path class="cls-12" d="M1851.07,1785.77c0,11.41-9.24,20.65-20.65,20.65s-20.57-9.24-20.57-20.65,9.24-20.57,20.57-20.57,20.65,9.24,20.65,20.57"/>
      <path class="cls-12" d="M1926.8,1785.77c0,11.41-9.24,20.65-20.65,20.65s-20.57-9.24-20.57-20.65,9.25-20.57,20.57-20.57,20.65,9.24,20.65,20.57"/>
      <path class="cls-12" d="M2002.52,1785.77c0,11.41-9.24,20.65-20.65,20.65s-20.57-9.24-20.57-20.65,9.25-20.57,20.57-20.57,20.65,9.24,20.65,20.57"/>
      <path class="cls-12" d="M2078.24,1785.77c0,11.41-9.25,20.65-20.65,20.65s-20.57-9.24-20.57-20.65,9.24-20.57,20.57-20.57,20.65,9.24,20.65,20.57"/>
      <path class="cls-12" d="M2434.8,1785.77c0,11.41-9.24,20.65-20.65,20.65s-20.57-9.24-20.57-20.65,9.24-20.57,20.57-20.57,20.65,9.24,20.65,20.57"/>
      <path class="cls-12" d="M2510.52,1785.77c0,11.41-9.24,20.65-20.65,20.65s-20.57-9.24-20.57-20.65,9.24-20.57,20.57-20.57,20.65,9.24,20.65,20.57"/>
      <path class="cls-12" d="M2586.24,1785.77c0,11.41-9.24,20.65-20.65,20.65s-20.57-9.24-20.57-20.65,9.25-20.57,20.57-20.57,20.65,9.24,20.65,20.57"/>
      <path class="cls-12" d="M2661.96,1785.77c0,11.41-9.24,20.65-20.65,20.65s-20.57-9.24-20.57-20.65,9.25-20.57,20.57-20.57,20.65,9.24,20.65,20.57"/>
      <path class="cls-12" d="M2737.69,1785.77c0,11.41-9.25,20.65-20.65,20.65s-20.57-9.24-20.57-20.65,9.24-20.57,20.57-20.57,20.65,9.24,20.65,20.57"/>
      <path class="cls-13" d="M2083.96,2110.36c-3.45-1.35-8-2.7-13.52-4.03-4.15-.96-7.44-1.86-9.78-2.69-2.17-.76-3.97-1.83-5.38-3.17-1.2-1.15-1.79-2.65-1.79-4.55,0-3.01,1.31-5.22,4.13-6.92,3.07-1.86,7.19-2.81,12.24-2.81,5.48,0,10.88.91,15.93,2.65.97.39,1.75.56,2.44.56,1.86,0,3.45-.72,4.62-2.09,1.08-1.28,1.63-2.75,1.63-4.37,0-2.96-1.52-5.13-4.27-6.11-6.37-2.36-13.56-3.56-21.38-3.56-5.96,0-11.16,1.03-15.48,3.06-4.38,2.07-7.77,4.9-10.04,8.44-2.29,3.54-3.45,7.54-3.45,11.88,0,5.02,1.44,9.14,4.29,12.22,2.7,2.91,5.96,5.14,9.71,6.6,3.52,1.37,8.17,2.81,13.82,4.27,4.15,1.09,7.37,2.03,9.6,2.81,2.01.7,3.71,1.65,5.06,2.86,1.12.98,1.63,2.13,1.63,3.61,0,4.22-1.66,9.83-16.06,9.83-6.94,0-13.52-1.37-19.59-4.08-2.56-1.12-5.61-.6-7.43,1.39-1.16,1.27-1.75,2.77-1.75,4.48,0,1.33.4,2.59,1.21,3.74.78,1.13,1.78,1.95,2.97,2.44,7.9,3.42,16.49,5.16,25.52,5.16,5.52,0,10.47-.93,14.73-2.77,4.35-1.87,7.79-4.53,10.21-7.91,2.47-3.43,3.72-7.35,3.72-11.66,0-5.2-1.38-9.43-4.09-12.57-2.6-3.02-5.77-5.27-9.44-6.71"/>
      <path class="cls-13" d="M2109.75,2075.84c-1.29,1.34-1.93,2.96-1.93,4.83v64.02c0,1.86.68,3.53,1.96,4.81,1.28,1.28,2.95,1.96,4.81,1.96s3.51-.66,4.83-1.94c1.34-1.28,2.04-2.96,2.04-4.83v-64.02c0-1.86-.69-3.54-2.02-4.85-2.65-2.66-7.14-2.64-9.69.03"/>
      <path class="cls-13" d="M2194.27,2107h-20.44c-1.72,0-3.28.64-4.5,1.86-1.21,1.22-1.85,2.77-1.85,4.48s.64,3.28,1.86,4.5c1.23,1.22,2.77,1.86,4.49,1.86h15.02v15.41c-4.96,2.49-10.35,3.74-16.06,3.74-5.41,0-10.14-1.14-14.04-3.4-3.89-2.24-6.9-5.35-8.95-9.23-2.07-3.93-3.12-8.47-3.12-13.5,0-5.48,1.11-10.25,3.31-14.17,2.18-3.88,5.22-6.86,9.05-8.88,3.9-2.04,8.36-3.07,13.24-3.07,3.59,0,6.95.45,9.99,1.36,3.07.92,6.19,2.31,9.41,4.22,2.66,1.33,5.92.81,7.8-1.15,1.18-1.23,1.78-2.74,1.78-4.46,0-1.22-.32-2.35-.92-3.37-.63-1.04-1.41-1.8-2.13-2.14-3.87-2.44-7.95-4.36-12.14-5.73-4.23-1.38-9.22-2.07-14.82-2.07-7.05,0-13.56,1.67-19.35,4.95-5.82,3.29-10.46,8-13.81,13.97-3.34,5.97-5.04,12.87-5.04,20.53s1.61,14.33,4.81,20.25c3.22,5.96,7.82,10.67,13.68,14.01,5.82,3.31,12.56,4.99,20.02,4.99,8.38,0,16.7-2.02,24.66-6,1.54-.72,2.79-1.84,3.73-3.32.94-1.48,1.42-3.16,1.42-5.02v-23.55c0-1.93-.71-3.66-2.07-5.01-1.35-1.35-3.09-2.07-5.01-2.07"/>
      <path class="cls-13" d="M2271.62,2075.83c-1.29,1.34-1.94,2.96-1.94,4.83v49.32l-36.18-52.25c-2-2.61-4.49-3.94-7.37-3.94h-1.35c-2.45,0-4.56.89-6.28,2.66-1.7,1.75-2.56,3.86-2.56,6.28v61.96c0,1.86.68,3.52,1.97,4.8,2.55,2.55,6.98,2.58,9.63.03,1.33-1.29,2.04-2.96,2.04-4.83v-49.42l36.38,52.55c.8,1.07,1.84,1.96,3.07,2.62,1.28.68,2.65,1.02,4.11,1.02h1.24c2.42,0,4.54-.86,6.29-2.57,1.76-1.72,2.65-3.83,2.65-6.27v-61.96c0-1.86-.7-3.54-2.02-4.85-2.66-2.65-7.13-2.63-9.68.03"/>
      <path class="cls-13" d="M2377.78,2075.83c-1.29,1.34-1.94,2.96-1.94,4.83v41.3c0,3.72-.85,6.89-2.51,9.43-1.7,2.59-3.87,4.48-6.66,5.79-5.63,2.63-12.51,2.63-18.14,0-2.78-1.3-4.96-3.19-6.66-5.79-1.66-2.54-2.5-5.71-2.5-9.43v-41.3c0-1.86-.7-3.54-2.02-4.85-2.66-2.65-7.14-2.63-9.69.03-1.29,1.34-1.94,2.96-1.94,4.83v40.99c0,6.56,1.6,12.21,4.73,16.81,3.11,4.55,7.17,7.99,12.07,10.21,4.82,2.19,9.89,3.3,15.08,3.3s10.26-1.11,15.09-3.3c4.9-2.23,8.95-5.66,12.07-10.21,3.13-4.59,4.72-10.25,4.72-16.81v-40.99c0-1.86-.69-3.53-2.02-4.85-2.65-2.65-7.13-2.63-9.68.03"/>
      <path class="cls-13" d="M2462.19,2087.28c-1.99-3.83-5.28-6.99-9.8-9.4-4.43-2.37-10.18-3.57-17.07-3.57h-23.66c-1.87,0-3.54.71-4.83,2.05-1.27,1.31-1.94,2.98-1.94,4.83v63.5c0,1.86.68,3.53,1.97,4.8,1.29,1.29,2.95,1.97,4.8,1.97s3.51-.66,4.83-1.94c1.34-1.28,2.05-2.96,2.05-4.83v-20.11h16.78c6.9,0,12.64-1.2,17.07-3.57,4.52-2.4,7.81-5.57,9.8-9.39,1.95-3.75,2.94-7.84,2.94-12.18s-.99-8.42-2.94-12.17M2451.48,2099.44c0,3.44-1.19,6.23-3.65,8.54-2.45,2.31-6.98,3.48-13.45,3.48h-15.85v-24.03h15.85c6.48,0,11,1.17,13.45,3.48,2.45,2.3,3.65,5.1,3.65,8.53"/>
      <path class="cls-12" d="M2140.6,2637.9c0,23.85-19.4,43.17-43.25,43.17s-43.17-19.32-43.17-43.17,19.32-43.25,43.17-43.25,43.25,19.4,43.25,43.25"/>
      <path class="cls-12" d="M2290.08,2637.9c0,23.85-19.4,43.17-43.25,43.17s-43.17-19.32-43.17-43.17,19.32-43.25,43.17-43.25,43.25,19.4,43.25,43.25"/>
      <path class="cls-12" d="M2439.57,2637.9c0,23.85-19.4,43.17-43.25,43.17s-43.17-19.32-43.17-43.17,19.32-43.25,43.17-43.25,43.25,19.4,43.25,43.25"/>
      <path class="cls-16" d="M1365.29,1494.7s22.05-69.89,47.48-67.93c25.44,1.96,2.54,43.88,2.54,43.88,0,0,84.2-96.17,126.46-35.09,42.26,61.1-37.96,158.86-131.87,163.79l-44.61-104.64Z"/>
      <path class="cls-5" d="M1432.54,1607.61c-.44,4.45-88.7,79.79-196.09,155.83-117.95,83.52-258.99,167.88-332.45,160.23-74.45-7.75-143.9-83.8-192.79-153.47-43.23-61.75-70.22-118.5-70.22-118.5l22.43-155.39,174.86-187.28c69.06,54.88,162.87,257.61,177.72,298.63l341.72-136.22c8.04-4.38,82.84,131.79,74.81,136.17"/>
      <path class="cls-5" d="M1236.46,1763.44c-117.95,83.52-258.99,167.88-332.45,160.23-74.46-7.75-143.91-83.8-192.79-153.47-1.92-31.45,1.05-63.12,9.02-93.58,27.99-107.12,113.66-193.17,136.04-301.6l-1.81-25.2c32.72,68.96,53.78,143.47,61.92,219.35,5,46.25,6.43,96.4,35.08,133.01,23.1,29.42,59.88,44.54,96.12,53.83,61.53,15.83,126.36,18.26,188.88,7.42"/>
      <path class="cls-4" d="M1175.85,2328.49v756.86c0,11.9-12.93,21.55-28.87,21.55H104.15c-15.94,0-28.87-9.65-28.87-21.55v-756.86c0-11.9,12.92-21.55,28.87-21.55h1042.84c15.94,0,28.87,9.65,28.87,21.55"/>
      <path class="cls-3" d="M665.35,2956.87v136.47c0,7.52,5.38,13.56,12.08,13.56h258.88c6.83,0,12.34-6.34,12.08-14-.39-11.04-1.44-25.04-4.85-28.13-54.87-49.79-107-34.92-113.95-58.34-6.95-23.42-9.72-49.5-9.72-49.5,0,0-145.33-29.96-154.51-.04"/>
      <path class="cls-3" d="M1102.33,2956.87v136.47c0,7.52,5.38,13.56,12.08,13.56h258.88c6.83,0,12.34-6.34,12.08-14-.39-11.04-1.44-25.04-4.85-28.13-54.87-49.79-107-34.92-113.95-58.34-6.96-23.42-9.72-49.5-9.72-49.5,0,0-145.33-29.96-154.51-.04"/>
      <path class="cls-14" d="M851.15,2243.83s159.65,475.81,225.71,748.39c.51,17.74,218.98,1.3,218.47-16.44-27.61-275.91-54.26-827.81-140.43-932.37-71.86-87.18-313.61-94.55-313.61-94.55l-192.94-20.43s-71.11,97.6-71.11,100.39,273.92,215,273.92,215"/>
      <path class="cls-14" d="M850.84,2971.7c35.84-203.76,202.53-792.58,95.18-928.04-53.26-67.21-360.51-118.58-364.73-119.98-4.21-1.4-312.78,88.85-312.78,88.85,0,0-53.92,253.76,56.19,294.4,44.88,16.56,246.65.04,246.65.04,0,0,52.62,437.88,66.69,670.48,0,23.16,212.8,17.41,212.8-5.75"/>
      <path class="cls-5" d="M847.04,1952.71c-22.16,32.89-355.99,82.7-521.83,70.33-28.1-2.14-51.36-5.99-67.47-12.04-19.9-7.47-53.39-237.54-47.4-433.74,3.47-113.56,20.24-215.77,60.48-256.9,103.11-105.31,455.96-107.67,567.47-11.33,61.64,53.23,33.54,606.84,8.74,643.68"/>
      <path class="cls-5" d="M779.4,1733.25c-130.49,64.56-263.33,130.87-367.1,232.93-16.28,16-32.06,33.04-51.85,44.32-10.89,6.21-22.88,10.4-35.25,12.53-28.1-2.13-51.36-5.99-67.47-12.04-19.9-7.47-53.39-237.55-47.4-433.75,2.48-7.75,5.11-15.5,7.87-23.15,31.45-87.1,83.8-167.77,156.33-225.23l10.28-7.53c57.24,76.21,81.55,176.23,65.6,270.2-4.17,24.86-10.72,52.02,1.6,73.97,9.95,17.65,29.64,27.11,48.61,34.09,88.37,32.44,184.71,33.27,278.79,33.65"/>
      <path class="cls-16" d="M766.85,1740l-54.67-.17s49.27-64.3,71.77-53.38c22.51,10.92-17.1,53.55-17.1,53.55"/>
      <path class="cls-5" d="M326.39,1282.69c-55.45,15.85-151.77,96.6-193.91,219.66-14.05,41.03-104.38,346.09,51.26,437.68,96.99,57.07,540.3-76.12,540.3-76.12l-11.85-124.05-335.87-21.28s106.11-414.78-49.93-435.89"/>
      <path class="cls-20" d="M943.99,1682.5l-46.48,175.91c-3.21,12.13-14.09,20.53-26.61,20.53h-110.1c-18.11,0-31.25-17.09-26.62-34.58l46.42-175.91c3.22-12.13,14.15-20.53,26.62-20.53h110.15c18.04,0,31.18,17.09,26.62,34.58"/>
      <path class="cls-16" d="M884.04,1800.56c-8.91,94.91-160.02,63.34-160.02,63.34l-11.82-124.05,54.62.18s126.07-34.38,117.22,60.53"/>
      <path class="cls-6" d="M1283.47,1752.72c-4.56,1.32-9.13,2.53-13.69,3.68,4.28-2.36,8.91-4.17,13.69-3.68"/>
      <path class="cls-16" d="M585.9,1242.27c.87,33.75-89.96,36.12-90.85,2.37,3.83-28.21.41-64.16-5.79-103.03l78.04,4.01,5.6,21.47,7.89,29.7c-6.49,12.4-3.74,25.7-.26,34.6,2.49,6.59,5.37,10.88,5.37,10.88"/>
      <path class="cls-18" d="M580.54,1231.38h-.09s-57.92-2.07-72.34-45.17c-14.51-43.02,44.41-28.76,44.41-28.76l20.39,9.62,7.88,29.71c-6.48,12.39-3.74,25.69-.25,34.59"/>
      <path class="cls-16" d="M580.18,1214.25c-49.22,12.39-85.61-44.12-92.29-53.02-.4-.6-.71-.97-.93-1.09,0,0-39.51-22.21-24.72-47.9,14.82-26.04,40.5,15.26,41.97,15.37l7.21,6.22s-1.23-61.71,10.04-63.9c8.84-1.59,63.49,7.98,94.09-.98,12.07,34.35,8.87,134.23-35.37,145.3"/>
      <path class="cls-19" d="M672.94,1047.43c-3.29,5.97-48.82,19.23-57.38,21.51-30.6,8.96-85.24-.6-94.09.98-11.27,2.18-10.04,63.9-10.04,63.9l-7.22-6.23c-1.47-.11-27.15-41.4-41.97-15.37-14.79,25.7,24.72,47.9,24.72,47.9.21.13.52.5.93,1.09,0,0-39.98-7.4-51.48-60.74-8.56-40.08-9.03-97.6,34.27-114.18,43.31-16.59,59.79-17.96,114.99-22.99,55.32-5,102.49,56.98,87.26,84.11"/>
    </g>
  </g>
</svg>