<?xml version="1.0" encoding="UTF-8"?>
<svg id="Layer_2" data-name="Layer 2" xmlns="http://www.w3.org/2000/svg" viewBox="0 0 211.26 211.26">
  <defs>
    <style>
      .cls-1 {
        fill: #740599;
      }

      .cls-1, .cls-2 {
        stroke-width: 0px;
      }

      .cls-2 {
        fill: #f6f5f7;
      }
    </style>
  </defs>
  <g id="Layer_1-2" data-name="Layer 1">
    <g>
      <path class="cls-1" d="M211.26,105.63c0,58.34-47.29,105.62-105.63,105.62S0,163.97,0,105.63,47.29,0,105.63,0s105.63,47.29,105.63,105.63Z"/>
      <g>
        <path class="cls-2" d="M115.05,144.89c3.07,4.99-.03,12.48-6.92,16.71-6.89,4.23-14.97,3.61-18.03-1.39l-35.27-57.44c-3.07-5,.02-12.48,6.92-16.71,6.89-4.23,14.97-3.61,18.03,1.38l35.27,57.44Z"/>
        <path class="cls-2" d="M113.77,157.43c-4.23,6.89-13.25,9.05-20.13,4.82-6.9-4.23-9.05-13.25-4.82-20.14l48.6-79.21c4.23-6.89,13.25-9.05,20.14-4.82,6.89,4.23,9.05,13.24,4.82,20.14l-48.61,79.22Z"/>
      </g>
    </g>
  </g>
</svg>